<?xml version="1.0" encoding="utf-8"?>

<!DOCTYPE svg PUBLIC "-//W3C//DTD SVG 1.0//EN" "http://www.w3.org/TR/2001/REC-SVG-20010904/DTD/svg10.dtd">
<!-- Uploaded to: SVG Repo, www.svgrepo.com, Generator: SVG Repo Mixer Tools -->
<svg version="1.0" id="Layer_1" xmlns="http://www.w3.org/2000/svg" xmlns:xlink="http://www.w3.org/1999/xlink" 
	 width="800px" height="800px" viewBox="0 0 64 64" enable-background="new 0 0 64 64" xml:space="preserve">
<g>
	<path fill="#394240" d="M32,0C14.328,0,0,14.328,0,32s14.328,32,32,32s32-14.328,32-32S49.672,0,32,0z M20.418,53.016
		C21.75,47.844,26.406,44,32,44s10.25,3.844,11.582,9.016C40.145,54.914,36.203,56,32,56S23.855,54.914,20.418,53.016z M32,32
		c-2.211,0-4-1.789-4-4s1.789-4,4-4s4,1.789,4,4S34.211,32,32,32z M50.129,47.695c-2.141-4.668-5.992-8.367-10.789-10.266
		C42.156,35.234,44,31.848,44,28c0-6.625-5.371-12-12-12s-12,5.375-12,12c0,3.848,1.844,7.234,4.66,9.43
		c-4.797,1.898-8.648,5.598-10.789,10.266C10.223,43.484,8,38.008,8,32C8,18.746,18.746,8,32,8s24,10.746,24,24
		C56,38.008,53.777,43.484,50.129,47.695z"/>
	<path fill="#45AAB8" d="M20.418,53.016C21.75,47.844,26.406,44,32,44s10.25,3.844,11.582,9.016C40.145,54.914,36.203,56,32,56
		S23.855,54.914,20.418,53.016z"/>
	<circle fill="#F9EBB2" cx="32" cy="28" r="4"/>
	<path fill="#B4CCB9" d="M50.129,47.695c-2.141-4.668-5.992-8.367-10.789-10.266C42.156,35.234,44,31.848,44,28
		c0-6.625-5.371-12-12-12s-12,5.375-12,12c0,3.848,1.844,7.234,4.66,9.43c-4.797,1.898-8.648,5.598-10.789,10.266
		C10.223,43.484,8,38.008,8,32C8,18.746,18.746,8,32,8s24,10.746,24,24C56,38.008,53.777,43.484,50.129,47.695z"/>
</g>
</svg>