<?xml version="1.0" encoding="utf-8"?>

<!DOCTYPE svg PUBLIC "-//W3C//DTD SVG 1.0//EN" "http://www.w3.org/TR/2001/REC-SVG-20010904/DTD/svg10.dtd">
<!-- Uploaded to: SVG Repo, www.svgrepo.com, Generator: SVG Repo Mixer Tools -->
<svg fill="#000000" version="1.0" id="Layer_1" xmlns="http://www.w3.org/2000/svg" xmlns:xlink="http://www.w3.org/1999/xlink" 
	 width="800px" height="800px" viewBox="0 0 64 64" enable-background="new 0 0 64 64" xml:space="preserve">
<path d="M32,0C14.328,0,0,14.328,0,32s14.328,32,32,32s32-14.328,32-32S49.672,0,32,0z M32,56c-7.254,0-13.742-3.234-18.145-8.32
	c2.148-4.656,6.016-8.352,10.809-10.246C21.844,35.234,20,31.848,20,28c0-6.625,5.371-12,12-12s12,5.375,12,12
	c0,3.848-1.844,7.234-4.664,9.434c4.793,1.895,8.66,5.59,10.809,10.246C45.742,52.766,39.254,56,32,56z"/>
</svg>